<?xml version='1.0' encoding='utf-8'?>
<svg xmlns="http://www.w3.org/2000/svg" width="400" height="400" viewBox="0 0 105.83333 105.83333" version="1.1" id="svg59546"> <defs id="defs59543"/> <g id="layer1"> <g id="g76471" transform="matrix(0.8558458,0,0,0.85633012,21.765617,15.561058)"> <path style="fill:#ff7f2a;fill-opacity:1;stroke:#000000;stroke-width:0.264583px;stroke-linecap:butt;stroke-linejoin:miter;stroke-opacity:1" d="M 24.389997,63.413992 7.7021047,74.710412 20.538945,83.182727 14.120525,74.710412 25.673681,68.291991 Z" id="path64892"/> <path style="fill:#ff7f2a;fill-opacity:1;stroke:#000000;stroke-width:0.264583px;stroke-linecap:butt;stroke-linejoin:miter;stroke-opacity:1" d="m 31.518201,62.719089 -10.992956,16.889339 15.119219,2.82379 -9.204299,-5.315743 8.154904,-10.400437 z" id="path64894"/> <path style="fill:#ff7f2a;fill-opacity:1;stroke:#000000;stroke-width:0.264583px;stroke-linecap:butt;stroke-linejoin:miter;stroke-opacity:1" d="M 50.368577,61.725894 34.191468,73.742383 47.387066,81.64433 40.603729,73.461264 51.864679,66.542989 Z" id="path61183"/> <path style="fill:#ffeeaa;stroke:#000000;stroke-width:0.264583px;stroke-linecap:butt;stroke-linejoin:miter;stroke-opacity:1" d="m 16.94463,64.44094 c 0,0 5.890416,6.843447 10.012736,7.702105 2.763495,0.575622 8.215577,-2.053894 8.215577,-2.053894 0,0 7.435387,3.220825 11.29642,2.824104 2.741421,-0.281681 7.445367,-3.594317 7.445367,-3.594317 0,0 4.937836,3.011433 7.702105,3.080843 3.165423,0.07948 8.985787,-3.080843 8.985787,-3.080843 0,0 4.763962,2.985932 7.188631,2.310633 3.389127,-0.943911 6.931896,-7.958841 6.931896,-7.958841 l -46.723581,1.505382 z" id="path60046"/> <g id="g75777"> <ellipse style="fill:#ff7f2a;fill-opacity:1;stroke:#000000;stroke-width:0.264583" id="ellipse75765" cx="15.630105" cy="58.756927" rx="7.316999" ry="6.1616831" transform="matrix(-0.88698646,0.46179542,0.46179542,0.88698646,0,0)"/> <ellipse style="fill:#ff7f2a;fill-opacity:1;stroke:#000000;stroke-width:0.264583" id="ellipse75767" cx="44.192116" cy="31.490789" rx="4.7496309" ry="11.039682" transform="matrix(-0.55974426,0.82866541,0.82866541,0.55974426,0,0)"/> <path style="fill:#ffeeaa;fill-opacity:1;stroke:#000000;stroke-width:0.264583px;stroke-linecap:butt;stroke-linejoin:miter;stroke-opacity:1" d="m 7.194894,17.922361 c 0,0 -3.121817,-0.677911 -4.245751,0.184343 -0.864216,0.663007 -0.982461,3.11654 -0.982461,3.11654 0,0 -2.76192802,0.521854 -3.5343887,1.550675 -0.6272138,0.835369 -0.4084569,3.10714 -0.4084569,3.10714 0,0 -1.90364,0.106684 -2.5143407,0.730154 -0.9748422,0.995227 -1.082223,4.036824 -1.082223,4.036824 l -2.4897575,-4.782164 c 0,0 2.748429,-1.812509 2.9321927,-3.26329 0.182817,-1.44331 -2.0155181,-3.871276 -2.0155181,-3.871276 0,0 2.6461166,-2.188634 2.6950744,-3.718734 0.065911,-2.05996 -3.3008826,-5.2282094 -3.3008826,-5.2282094 l -4.9065086,8.9223604 -0.09254,15.388947 4.4864783,7.505432 L 0.94445468,35.93842 7.0423527,22.632954 Z" id="path75769"/> <path style="fill:#ff7f2a;fill-opacity:1;stroke:#000000;stroke-width:0.264583px;stroke-linecap:butt;stroke-linejoin:miter;stroke-opacity:1" d="M -2.6203074,49.661743 C 11.929167,40.677074 11.131347,28.188254 8.414472,15.261268 L -7.1197936,34.347976 -5.7491067,5.8473036 C -17.77235,11.244001 -35.920886,46.485098 -10.799506,55.077905 c 6.4200787,0.881788 6.2787188,-1.256593 7.3152989,-2.071903" id="path75771"/> </g> <path style="fill:#ff7f2a;stroke:#000000;stroke-width:0.264583px;stroke-linecap:butt;stroke-linejoin:miter;stroke-opacity:1" d="m 17.201366,64.184204 11.810562,2.910995 C 45.327675,71.116605 69.226746,63.892069 83.952936,63.67073 88.996594,62.031541 77.216273,48.966995 45.185677,46.982837 27.016902,45.857359 12.06663,40.564416 17.201366,64.184204 Z" id="path59617"/> <path style="fill:#ff7f2a;fill-opacity:1;stroke:#000000;stroke-width:0.264583px;stroke-linecap:butt;stroke-linejoin:miter;stroke-opacity:1" d="m 82.078395,61.360098 8.777741,9.969661 -4.472801,7.745179 0.919006,-7.105895 -8.561525,-7.528104 c -2.563948,-1.835194 0.434747,-4.280117 3.337579,-3.080841 z" id="path64896"/> <path style="fill:#ff7f2a;fill-opacity:1;stroke:#000000;stroke-width:0.264583px;stroke-linecap:butt;stroke-linejoin:miter;stroke-opacity:1" d="m 71.099139,60.408458 8.168851,11.241129 -7.930588,10.012421 3.556089,-10.450479 -6.87122,-6.806122 c -1.089393,-2.742327 0.05923,-3.992642 3.076868,-3.996949 z" id="path64898"/> <path style="fill:#ff7f2a;fill-opacity:1;stroke:#000000;stroke-width:0.264583px;stroke-linecap:butt;stroke-linejoin:miter;stroke-opacity:1" d="m 58.153709,63.266315 8.475004,8.67891 -9.601282,10.982789 3.959232,-10.750434 -7.923371,-5.891328 c -1.414792,-3.36384 2.332648,-5.665535 5.090417,-3.019937 z" id="path64900"/> <ellipse style="fill:#ffffff;stroke:#000000;stroke-width:0.264583" id="path60644" cx="25.673681" cy="43.131786" rx="10.782947" ry="10.012735"/> <ellipse style="fill:#ffffff;stroke:#000000;stroke-width:0.264583" id="path60788" cx="44.928944" cy="42.746681" rx="10.012735" ry="10.911314"/> <g id="g61148" transform="translate(-1.0269473,0.25673681)"> <ellipse style="fill:#1a1a1a;stroke:#000000;stroke-width:0.264583" id="ellipse61144" cx="31.45026" cy="42.489941" rx="2.4389997" ry="2.6957366"/> <circle style="fill:#ffffff;stroke:#000000;stroke-width:0.264583" id="circle61146" cx="31.321894" cy="41.334629" r="1.283684"/> </g> <g id="g61142" transform="translate(18.485051,-0.51347363)"> <ellipse style="fill:#1a1a1a;stroke:#000000;stroke-width:0.264583" id="path60914" cx="31.45026" cy="42.489941" rx="2.4389997" ry="2.6957366"/> <circle style="fill:#ffffff;stroke:#000000;stroke-width:0.264583" id="path61036" cx="31.321894" cy="41.334629" r="1.283684"/> </g> <ellipse style="fill:#ff7f2a;fill-opacity:1;stroke:#000000;stroke-width:0.264583" id="path66539" cx="67.136673" cy="50.320415" rx="7.316999" ry="6.1616831"/> <ellipse style="fill:#ff7f2a;fill-opacity:1;stroke:#000000;stroke-width:0.264583" id="path66541" cx="85.454369" cy="-0.47055513" rx="4.7496309" ry="11.039682" transform="rotate(28.458863)"/> <path style="fill:#ffeeaa;fill-opacity:1;stroke:#000000;stroke-width:0.264583px;stroke-linecap:butt;stroke-linejoin:miter;stroke-opacity:1" d="m 53.401256,10.782946 c 0,0 2.455953,-2.042939 3.851052,-1.7971577 1.072722,0.1889867 2.310633,2.3106317 2.310633,2.3106317 0,0 2.690783,-0.812568 3.85105,-0.256737 0.9421,0.451317 1.797159,2.567368 1.797159,2.567368 0,0 1.737769,-0.784465 2.567368,-0.513474 1.324263,0.432575 2.824104,3.080842 2.824104,3.080842 v -5.391473 c 0,0 -3.274828,-0.338459 -4.107788,-1.5404208 -0.82867,-1.1957719 0,-4.3645259 0,-4.3645259 0,0 -3.357771,-0.7193251 -4.107789,-2.0538943 -1.009742,-1.7967189 0.513475,-6.1616835 0.513475,-6.1616835 l 8.472312,5.6482098 7.188631,13.6070507 -0.513471,8.729052 -10.782948,-0.770211 -11.553156,-8.985788 z" id="path70871"/> <path style="fill:#ff7f2a;fill-opacity:1;stroke:#000000;stroke-width:0.264583px;stroke-linecap:butt;stroke-linejoin:miter;stroke-opacity:1" d="M 76.764308,34.402733 C 59.710042,33.152334 54.650417,21.70649 51.090626,8.9857883 L 73.683464,18.741787 59.306203,-5.9049467 c 13.156624,-0.765481 45.528307,22.1119837 27.214102,41.3346257 -5.287317,3.746897 -6.149427,1.784903 -7.445366,1.540422" id="path66656"/> <path style="fill:none;stroke:#000000;stroke-width:0.264583px;stroke-linecap:butt;stroke-linejoin:miter;stroke-opacity:1" d="m 18.741787,57.765783 3.337579,-2.310633 c 0,0 2.820365,6.064393 5.64821,6.418421 1.954914,0.244743 4.877999,-3.337578 4.877999,-3.337578 0,0 3.88495,4.291504 6.418421,4.107788 3.388489,-0.245718 7.702103,-6.675157 7.702103,-6.675157 l 4.621262,0.77021" id="path76211"/> <path style="fill:#ff6600;stroke:#000000;stroke-width:0.264583px;stroke-linecap:butt;stroke-linejoin:miter;stroke-opacity:1" d="m -18.228313,25.930418 c -1.693105,1.951215 -2.310632,4.408146 -2.310632,6.931893 0,1.209661 0.911842,2.12471 1.797158,2.567368 7.19065,3.595325 8.956766,-17.942554 0.513474,-9.499261 z" id="path76325"/> <path style="fill:#ff6600;stroke:#000000;stroke-width:0.264583px;stroke-linecap:butt;stroke-linejoin:miter;stroke-opacity:1" d="m -15.147472,43.38852 c 0.1835,8.789046 5.636594,-1.610455 0,0 z" id="path76329"/> <path style="fill:#ff6600;stroke:#000000;stroke-width:0.264583px;stroke-linecap:butt;stroke-linejoin:miter;stroke-opacity:1" d="m -0.51347361,36.970102 c -2.14260969,0.870201 -4.58286439,1.61119 -5.90494679,3.594314 -6.5535856,9.830379 16.2467021,0.837867 5.90494679,-3.594314 z" id="path76331"/> <path style="fill:#ff6600;stroke:#000000;stroke-width:0.264583px;stroke-linecap:butt;stroke-linejoin:miter;stroke-opacity:1" d="m 60.076413,19.768735 c 0.176411,3.408535 2.23902,5.756199 5.134737,7.445367 14.039593,8.189762 0.571015,-16.003994 -5.134737,-7.445367 z" id="path76333"/> <path style="fill:#ff6600;stroke:#000000;stroke-width:0.264583px;stroke-linecap:butt;stroke-linejoin:miter;stroke-opacity:1" d="m 76.764308,22.336102 c -2.645701,7.336829 5.76367,1.646764 0,0 z" id="path76337"/> <path style="fill:#ff6600;stroke:#000000;stroke-width:0.264583px;stroke-linecap:butt;stroke-linejoin:miter;stroke-opacity:1" d="m 80.101886,6.6751572 c -1.793108,27.3370188 14.740464,6.3173418 0,0 z" id="path76339"/> </g> </g> </svg>